<svg width="76" height="72" viewBox="0 0 76 72" fill="none" xmlns="http://www.w3.org/2000/svg">
<path d="M5.80057 69.078C5.11591 69.078 4.48324 68.9653 3.90257 68.74C3.32191 68.506 2.81924 68.181 2.39457 67.765C1.96991 67.349 1.63624 66.8593 1.39357 66.296C1.15957 65.7327 1.04257 65.1173 1.04257 64.45C1.04257 63.7827 1.15957 63.1673 1.39357 62.604C1.63624 62.0407 1.96991 61.551 2.39457 61.135C2.82791 60.719 3.33491 60.3983 3.91557 60.173C4.49624 59.939 5.12891 59.822 5.81357 59.822C6.47224 59.822 7.09191 59.9347 7.67257 60.16C8.25324 60.3767 8.74291 60.706 9.14157 61.148L8.53057 61.759C8.15791 61.3777 7.74624 61.1047 7.29557 60.94C6.84491 60.7667 6.35957 60.68 5.83957 60.68C5.29357 60.68 4.78657 60.7753 4.31857 60.966C3.85057 61.148 3.44324 61.4123 3.09657 61.759C2.74991 62.097 2.47691 62.4957 2.27757 62.955C2.08691 63.4057 1.99157 63.904 1.99157 64.45C1.99157 64.996 2.08691 65.4987 2.27757 65.958C2.47691 66.4087 2.74991 66.8073 3.09657 67.154C3.44324 67.492 3.85057 67.7563 4.31857 67.947C4.78657 68.129 5.29357 68.22 5.83957 68.22C6.35957 68.22 6.84491 68.1333 7.29557 67.96C7.74624 67.7867 8.15791 67.5093 8.53057 67.128L9.14157 67.739C8.74291 68.181 8.25324 68.5147 7.67257 68.74C7.09191 68.9653 6.46791 69.078 5.80057 69.078ZM10.8812 69V62.175H11.7652V64.034L11.6742 63.709C11.8649 63.189 12.1856 62.7947 12.6362 62.526C13.0869 62.2487 13.6459 62.11 14.3132 62.11V63.007C14.2786 63.007 14.2439 63.007 14.2092 63.007C14.1746 62.9983 14.1399 62.994 14.1052 62.994C13.3859 62.994 12.8226 63.215 12.4152 63.657C12.0079 64.0903 11.8042 64.71 11.8042 65.516V69H10.8812ZM16.3414 71.587C16.0208 71.587 15.7131 71.535 15.4184 71.431C15.1324 71.327 14.8854 71.171 14.6774 70.963L15.1064 70.274C15.2798 70.4387 15.4661 70.5643 15.6654 70.651C15.8734 70.7463 16.1031 70.794 16.3544 70.794C16.6578 70.794 16.9178 70.7073 17.1344 70.534C17.3598 70.3693 17.5721 70.0747 17.7714 69.65L18.2134 68.649L18.3174 68.506L21.1254 62.175H22.0354L18.6164 69.819C18.4258 70.261 18.2134 70.612 17.9794 70.872C17.7541 71.132 17.5071 71.314 17.2384 71.418C16.9698 71.5307 16.6708 71.587 16.3414 71.587ZM18.1614 69.195L15.0154 62.175H15.9774L18.7594 68.441L18.1614 69.195ZM26.8583 69.065C26.269 69.065 25.736 68.9307 25.2593 68.662C24.7827 68.3847 24.4013 67.9903 24.1153 67.479C23.838 66.959 23.6993 66.3263 23.6993 65.581C23.6993 64.8357 23.838 64.2073 24.1153 63.696C24.3927 63.176 24.7697 62.7817 25.2463 62.513C25.723 62.2443 26.2603 62.11 26.8583 62.11C27.5083 62.11 28.089 62.2573 28.6003 62.552C29.1203 62.838 29.5277 63.2453 29.8223 63.774C30.117 64.294 30.2643 64.8963 30.2643 65.581C30.2643 66.2743 30.117 66.881 29.8223 67.401C29.5277 67.921 29.1203 68.3283 28.6003 68.623C28.089 68.9177 27.5083 69.065 26.8583 69.065ZM23.3353 71.522V62.175H24.2193V64.229L24.1283 65.594L24.2583 66.972V71.522H23.3353ZM26.7933 68.246C27.2787 68.246 27.712 68.1377 28.0933 67.921C28.4747 67.6957 28.778 67.3837 29.0033 66.985C29.2287 66.5777 29.3413 66.1097 29.3413 65.581C29.3413 65.0523 29.2287 64.5887 29.0033 64.19C28.778 63.7913 28.4747 63.4793 28.0933 63.254C27.712 63.0287 27.2787 62.916 26.7933 62.916C26.308 62.916 25.8703 63.0287 25.4803 63.254C25.099 63.4793 24.7957 63.7913 24.5703 64.19C24.3537 64.5887 24.2453 65.0523 24.2453 65.581C24.2453 66.1097 24.3537 66.5777 24.5703 66.985C24.7957 67.3837 25.099 67.6957 25.4803 67.921C25.8703 68.1377 26.308 68.246 26.7933 68.246ZM34.3039 69.065C33.6626 69.065 33.1686 68.8917 32.8219 68.545C32.4752 68.1983 32.3019 67.7087 32.3019 67.076V60.667H33.2249V67.024C33.2249 67.4227 33.3246 67.7303 33.5239 67.947C33.7319 68.1637 34.0266 68.272 34.4079 68.272C34.8152 68.272 35.1532 68.155 35.4219 67.921L35.7469 68.584C35.5649 68.7487 35.3439 68.87 35.0839 68.948C34.8326 69.026 34.5726 69.065 34.3039 69.065ZM31.0799 62.942V62.175H35.3049V62.942H31.0799ZM39.9679 69.065C39.3093 69.065 38.7156 68.9177 38.1869 68.623C37.6669 68.3197 37.2553 67.908 36.9519 67.388C36.6486 66.8593 36.4969 66.257 36.4969 65.581C36.4969 64.8963 36.6486 64.294 36.9519 63.774C37.2553 63.254 37.6669 62.8467 38.1869 62.552C38.7069 62.2573 39.3006 62.11 39.9679 62.11C40.6439 62.11 41.2419 62.2573 41.7619 62.552C42.2906 62.8467 42.7023 63.254 42.9969 63.774C43.3003 64.294 43.4519 64.8963 43.4519 65.581C43.4519 66.257 43.3003 66.8593 42.9969 67.388C42.7023 67.908 42.2906 68.3197 41.7619 68.623C41.2333 68.9177 40.6353 69.065 39.9679 69.065ZM39.9679 68.246C40.4619 68.246 40.8996 68.1377 41.2809 67.921C41.6623 67.6957 41.9613 67.3837 42.1779 66.985C42.4033 66.5777 42.5159 66.1097 42.5159 65.581C42.5159 65.0437 42.4033 64.5757 42.1779 64.177C41.9613 63.7783 41.6623 63.4707 41.2809 63.254C40.8996 63.0287 40.4663 62.916 39.9809 62.916C39.4956 62.916 39.0623 63.0287 38.6809 63.254C38.2996 63.4707 37.9963 63.7783 37.7709 64.177C37.5456 64.5757 37.4329 65.0437 37.4329 65.581C37.4329 66.1097 37.5456 66.5777 37.7709 66.985C37.9963 67.3837 38.2996 67.6957 38.6809 67.921C39.0623 68.1377 39.4913 68.246 39.9679 68.246ZM45.5313 69V59.9H49.4573C50.4713 59.9 51.2557 60.1037 51.8103 60.511C52.3737 60.9183 52.6553 61.4947 52.6553 62.24C52.6553 62.734 52.5383 63.15 52.3043 63.488C52.079 63.826 51.767 64.0817 51.3683 64.255C50.9783 64.4283 50.5493 64.515 50.0813 64.515L50.3023 64.203C50.883 64.203 51.3813 64.294 51.7973 64.476C52.222 64.6493 52.5513 64.9137 52.7853 65.269C53.0193 65.6157 53.1363 66.049 53.1363 66.569C53.1363 67.3403 52.8503 67.9383 52.2783 68.363C51.715 68.7877 50.8613 69 49.7173 69H45.5313ZM46.4933 68.207H49.7043C50.5016 68.207 51.1126 68.0727 51.5373 67.804C51.962 67.5267 52.1743 67.089 52.1743 66.491C52.1743 65.9017 51.962 65.4727 51.5373 65.204C51.1126 64.9267 50.5016 64.788 49.7043 64.788H46.3893V63.995H49.3923C50.1203 63.995 50.6837 63.8563 51.0823 63.579C51.4896 63.3017 51.6933 62.89 51.6933 62.344C51.6933 61.7893 51.4896 61.3777 51.0823 61.109C50.6837 60.8317 50.1203 60.693 49.3923 60.693H46.4933V68.207ZM59.4141 69V67.492L59.3751 67.245V64.723C59.3751 64.1423 59.2104 63.696 58.8811 63.384C58.5604 63.072 58.0794 62.916 57.4381 62.916C56.9961 62.916 56.5758 62.9897 56.1771 63.137C55.7784 63.2843 55.4404 63.4793 55.1631 63.722L54.7471 63.033C55.0938 62.7383 55.5098 62.513 55.9951 62.357C56.4804 62.1923 56.9918 62.11 57.5291 62.11C58.4131 62.11 59.0934 62.331 59.5701 62.773C60.0554 63.2063 60.2981 63.8693 60.2981 64.762V69H59.4141ZM57.0611 69.065C56.5498 69.065 56.1034 68.9827 55.7221 68.818C55.3494 68.6447 55.0634 68.4107 54.8641 68.116C54.6648 67.8127 54.5651 67.466 54.5651 67.076C54.5651 66.7207 54.6474 66.4 54.8121 66.114C54.9854 65.8193 55.2628 65.5853 55.6441 65.412C56.0341 65.23 56.5541 65.139 57.2041 65.139H59.5571V65.828H57.2301C56.5714 65.828 56.1121 65.945 55.8521 66.179C55.6008 66.413 55.4751 66.7033 55.4751 67.05C55.4751 67.44 55.6268 67.752 55.9301 67.986C56.2334 68.22 56.6581 68.337 57.2041 68.337C57.7241 68.337 58.1704 68.22 58.5431 67.986C58.9244 67.7433 59.2018 67.3967 59.3751 66.946L59.5831 67.583C59.4098 68.0337 59.1064 68.3933 58.6731 68.662C58.2484 68.9307 57.7111 69.065 57.0611 69.065ZM64.6381 69.065C64.0747 69.065 63.5417 68.987 63.0391 68.831C62.5364 68.6663 62.1421 68.4627 61.8561 68.22L62.2721 67.492C62.5494 67.7 62.9047 67.882 63.3381 68.038C63.7714 68.1853 64.2264 68.259 64.7031 68.259C65.3531 68.259 65.8211 68.1593 66.1071 67.96C66.3931 67.752 66.5361 67.479 66.5361 67.141C66.5361 66.8897 66.4537 66.6947 66.2891 66.556C66.1331 66.4087 65.9251 66.3003 65.6651 66.231C65.4051 66.153 65.1147 66.088 64.7941 66.036C64.4734 65.984 64.1527 65.9233 63.8321 65.854C63.5201 65.7847 63.2341 65.685 62.9741 65.555C62.7141 65.4163 62.5017 65.23 62.3371 64.996C62.1811 64.762 62.1031 64.45 62.1031 64.06C62.1031 63.6873 62.2071 63.3537 62.4151 63.059C62.6231 62.7643 62.9264 62.5347 63.3251 62.37C63.7324 62.1967 64.2264 62.11 64.8071 62.11C65.2491 62.11 65.6911 62.1707 66.1331 62.292C66.5751 62.4047 66.9391 62.5563 67.2251 62.747L66.8221 63.488C66.5187 63.28 66.1937 63.1327 65.8471 63.046C65.5004 62.9507 65.1537 62.903 64.8071 62.903C64.1917 62.903 63.7367 63.0113 63.4421 63.228C63.1561 63.436 63.0131 63.7047 63.0131 64.034C63.0131 64.294 63.0911 64.4977 63.2471 64.645C63.4117 64.7923 63.6241 64.9093 63.8841 64.996C64.1527 65.074 64.4431 65.139 64.7551 65.191C65.0757 65.243 65.3921 65.308 65.7041 65.386C66.0247 65.4553 66.3151 65.555 66.5751 65.685C66.8437 65.8063 67.0561 65.984 67.2121 66.218C67.3767 66.4433 67.4591 66.7423 67.4591 67.115C67.4591 67.5137 67.3464 67.8603 67.1211 68.155C66.9044 68.441 66.5837 68.6663 66.1591 68.831C65.7431 68.987 65.2361 69.065 64.6381 69.065ZM72.0517 69.065C71.3411 69.065 70.7171 68.9177 70.1797 68.623C69.6424 68.3197 69.2221 67.908 68.9187 67.388C68.6154 66.8593 68.4637 66.257 68.4637 65.581C68.4637 64.905 68.6067 64.307 68.8927 63.787C69.1874 63.267 69.5861 62.8597 70.0887 62.565C70.6001 62.2617 71.1721 62.11 71.8047 62.11C72.4461 62.11 73.0137 62.2573 73.5077 62.552C74.0104 62.838 74.4047 63.2453 74.6907 63.774C74.9767 64.294 75.1197 64.8963 75.1197 65.581C75.1197 65.6243 75.1154 65.672 75.1067 65.724C75.1067 65.7673 75.1067 65.815 75.1067 65.867H69.1657V65.178H74.6127L74.2487 65.451C74.2487 64.957 74.1404 64.5193 73.9237 64.138C73.7157 63.748 73.4297 63.4447 73.0657 63.228C72.7017 63.0113 72.2814 62.903 71.8047 62.903C71.3367 62.903 70.9164 63.0113 70.5437 63.228C70.1711 63.4447 69.8807 63.748 69.6727 64.138C69.4647 64.528 69.3607 64.9743 69.3607 65.477V65.62C69.3607 66.14 69.4734 66.5993 69.6987 66.998C69.9327 67.388 70.2534 67.6957 70.6607 67.921C71.0767 68.1377 71.5491 68.246 72.0777 68.246C72.4937 68.246 72.8794 68.1723 73.2347 68.025C73.5987 67.8777 73.9107 67.6523 74.1707 67.349L74.6907 67.947C74.3874 68.311 74.0061 68.5883 73.5467 68.779C73.0961 68.9697 72.5977 69.065 72.0517 69.065Z" fill="white"/>
<path d="M61.9375 45.1154L33.4253 0L5 45.1154H15.779L33.3384 14.6907L51.5062 45.1154H61.9375Z" fill="white"/>
<path opacity="0.6" d="M33 20L47.7224 45.5H18.2776L33 20Z" fill="white"/>
</svg>
